PathFileType	4	(X/Y/Z)	/home/nbianco/projects/addbio/data/HamnerRunning2013/Processed/subject04//results/MarkerData/run200.trc
DataRate	CameraRate	NumFrames	NumMarkers	Units	OrigDataRate	OrigDataStartFrame	OrigNumFrames
100	100	9	42	m	100	148	237
Frame#	Time	C7			CLAV			LACR			LASI			LCAL			LFAradius			LFAsuperior			LFAulna			LLEL			LMEL			LMT5			LPSI			LTB1			LTB2			LTB3			LTH1			LTH2			LTH3			LTOE			LUA1			LUA2			LUA3			RACR			RASI			RCAL			RFAradius			RFAsuperior			RFAulna			RLEL			RMEL			RMT5			RPSI			RTB1			RTB2			RTB3			RTH1			RTH2			RTH3			RTOE			RUA1			RUA2			RUA3		
		X1	Y1	Z1	X2	Y2	Z2	X3	Y3	Z3	X4	Y4	Z4	X5	Y5	Z5	X6	Y6	Z6	X7	Y7	Z7	X8	Y8	Z8	X9	Y9	Z9	X10	Y10	Z10	X11	Y11	Z11	X12	Y12	Z12	X13	Y13	Z13	X14	Y14	Z14	X15	Y15	Z15	X16	Y16	Z16	X17	Y17	Z17	X18	Y18	Z18	X19	Y19	Z19	X20	Y20	Z20	X21	Y21	Z21	X22	Y22	Z22	X23	Y23	Z23	X24	Y24	Z24	X25	Y25	Z25	X26	Y26	Z26	X27	Y27	Z27	X28	Y28	Z28	X29	Y29	Z29	X30	Y30	Z30	X31	Y31	Z31	X32	Y32	Z32	X33	Y33	Z33	X34	Y34	Z34	X35	Y35	Z35	X36	Y36	Z36	X37	Y37	Z37	X38	Y38	Z38	X39	Y39	Z39	X40	Y40	Z40	X41	Y41	Z41	X42	Y42	Z42

149	2.31	1.12737	1.59002	-0.316205	1.23644	1.50599	-0.263393	1.22513	1.58138	-0.466462	1.21867	1.05465	-0.43837	0.73286	0.208749	-0.350513	1.33111	1.33101	-0.416519	1.22992	1.27703	-0.552268	1.34897	1.26121	-0.419944	1.15471	1.27499	-0.598656	1.093	1.26335	-0.527035	0.894663	0.0627843	-0.403005	1.05557	1.09057	-0.369529	0.976901	0.373985	-0.377594	0.920485	0.33466	-0.421759	0.895699	0.260668	-0.363831	1.14024	0.884047	-0.490147	1.16642	0.746354	-0.458037	1.05752	0.651553	-0.456139	0.921036	0.0694938	-0.314332	1.19589	1.4661	-0.554797	1.11719	1.41415	-0.563926	1.16483	1.34447	-0.584889	1.15796	1.55604	-0.135371	1.20135	1.0543	-0.180189	1.10138	0.152774	-0.256078	1.15573	1.28139	-0.124961	0.995878	1.32031	-0.0748294	1.12176	1.21919	-0.116572	0.912542	1.34681	-0.0758743	0.90165	1.357	-0.170334	1.30586	0.0950872	-0.165201	1.04049	1.0921	-0.277563	1.29732	0.402299	-0.213911	1.22285	0.31384	-0.17864	1.23802	0.236966	-0.238767	1.19148	0.886164	-0.120121	1.26519	0.804513	-0.130489	1.24539	0.661705	-0.15319	1.33482	0.117825	-0.238228	1.05275	1.4601	-0.0754247	0.990832	1.47525	-0.105395	0.973661	1.40644	-0.0785172
150	2.32	1.12634	1.59475	-0.314527	1.23592	1.51098	-0.262235	1.22489	1.58843	-0.463683	1.21978	1.05794	-0.438913	0.724545	0.220816	-0.350451	1.33047	1.33941	-0.41334	1.23259	1.28529	-0.551889	1.34895	1.26967	-0.416789	1.15835	1.28318	-0.59982	1.09541	1.27059	-0.529597	0.877513	0.0652633	-0.403441	1.05743	1.09496	-0.369444	0.967899	0.38075	-0.377789	0.911008	0.342354	-0.422246	0.885937	0.267917	-0.364326	1.14067	0.887958	-0.489847	1.16392	0.74979	-0.456556	1.05335	0.657057	-0.455685	0.904508	0.0710607	-0.315117	1.19838	1.47404	-0.554627	1.11989	1.42224	-0.56407	1.16814	1.35316	-0.585657	1.15812	1.56131	-0.134283	1.2031	1.05828	-0.180771	1.12497	0.141029	-0.254928	1.15564	1.29034	-0.125065	0.996066	1.32755	-0.0732815	1.1227	1.22771	-0.116279	0.912372	1.35329	-0.0733949	0.900949	1.36422	-0.16788	1.33509	0.098241	-0.168942	1.04241	1.09701	-0.277372	1.30297	0.404315	-0.215598	1.23608	0.310483	-0.17918	1.25536	0.235146	-0.240063	1.19173	0.889509	-0.119604	1.2631	0.80647	-0.131219	1.23998	0.663466	-0.155276	1.36069	0.12356	-0.242402	1.05329	1.46627	-0.073415	0.991608	1.48169	-0.103402	0.973932	1.41314	-0.0759644
151	2.33	1.12553	1.5985	-0.31282	1.23549	1.5148	-0.261368	1.22448	1.59418	-0.460872	1.22086	1.06034	-0.439286	0.716888	0.232778	-0.350643	1.3298	1.34607	-0.410736	1.23455	1.29205	-0.551626	1.34845	1.27632	-0.414405	1.16113	1.29022	-0.600862	1.09743	1.27697	-0.53195	0.860857	0.0681204	-0.403663	1.05915	1.09858	-0.369673	0.960213	0.386709	-0.377987	0.902753	0.349443	-0.422768	0.877066	0.274728	-0.364815	1.14146	0.891323	-0.489818	1.16215	0.752854	-0.455132	1.05037	0.661861	-0.455233	0.888762	0.0729326	-0.315857	1.20073	1.48081	-0.554849	1.12224	1.42934	-0.564122	1.17077	1.36074	-0.586274	1.15855	1.56572	-0.133067	1.20481	1.06136	-0.18118	1.14775	0.130634	-0.253887	1.1561	1.29774	-0.125366	0.99696	1.33345	-0.0715509	1.12424	1.23467	-0.115494	0.912856	1.35845	-0.0705496	0.900921	1.36973	-0.165108	1.36228	0.102545	-0.172896	1.04413	1.10098	-0.277172	1.30761	0.405965	-0.217685	1.24851	0.307511	-0.179855	1.27136	0.233873	-0.241451	1.19186	0.891469	-0.119213	1.26073	0.806855	-0.132183	1.23418	0.664094	-0.156429	1.38428	0.129951	-0.246725	1.05423	1.47115	-0.0712827	0.992679	1.48671	-0.101262	0.974626	1.4186	-0.0732577
152	2.34	1.12496	1.60125	-0.311075	1.23529	1.51751	-0.260535	1.22392	1.59855	-0.458179	1.22193	1.06188	-0.439348	0.7096	0.244375	-0.351249	1.32911	1.35078	-0.408755	1.23575	1.29724	-0.551498	1.34745	1.28098	-0.412601	1.16299	1.29596	-0.601764	1.09884	1.28236	-0.533939	0.844899	0.0713182	-0.403853	1.06063	1.10133	-0.370037	0.953874	0.3916	-0.378072	0.895786	0.355663	-0.42317	0.868967	0.280946	-0.365239	1.14247	0.894026	-0.489842	1.16121	0.755384	-0.45373	1.04863	0.665702	-0.454799	0.873686	0.0749751	-0.316463	1.20254	1.48634	-0.555003	1.12396	1.43527	-0.56393	1.1726	1.36701	-0.586713	1.15924	1.56913	-0.131733	1.20653	1.06359	-0.181279	1.16908	0.121773	-0.253073	1.15711	1.30352	-0.125518	0.998493	1.3379	-0.0696039	1.12635	1.24002	-0.114217	0.913939	1.36214	-0.0674327	0.901518	1.37346	-0.162108	1.38677	0.107609	-0.17691	1.04564	1.10386	-0.277022	1.31117	0.407167	-0.219755	1.25966	0.304925	-0.180597	1.28571	0.233111	-0.242937	1.19202	0.892235	-0.118989	1.25858	0.80597	-0.133313	1.22864	0.663877	-0.156633	1.40516	0.136759	-0.250953	1.05549	1.47475	-0.0690629	0.993956	1.49027	-0.0989805	0.975742	1.42269	-0.0703528
153	2.35	1.12466	1.60298	-0.30925	1.23537	1.51922	-0.259562	1.22326	1.60155	-0.455872	1.22303	1.06262	-0.439066	0.702418	0.25539	-0.352366	1.3284	1.35339	-0.407365	1.23615	1.30079	-0.551504	1.34597	1.2835	-0.411383	1.16387	1.30032	-0.602511	1.09939	1.28657	-0.535474	0.829714	0.0747849	-0.40416	1.06175	1.10317	-0.370204	0.948843	0.395211	-0.377995	0.890058	0.360792	-0.423346	0.861457	0.28645	-0.365571	1.1436	0.895958	-0.489772	1.16113	0.757187	-0.452322	1.04824	0.668257	-0.454434	0.858995	0.0771429	-0.31697	1.2035	1.49054	-0.554721	1.12483	1.43984	-0.563363	1.17354	1.37184	-0.586996	1.16017	1.57139	-0.130295	1.20827	1.06501	-0.181035	1.18825	0.114616	-0.25248	1.15865	1.30763	-0.125298	1.00059	1.34081	-0.067394	1.12903	1.2437	-0.112503	0.915562	1.3642	-0.0641501	0.90261	1.37537	-0.158903	1.40798	0.112725	-0.180884	1.04696	1.10554	-0.276869	1.31372	0.407855	-0.221348	1.26911	0.302735	-0.181263	1.29815	0.232755	-0.244338	1.19243	0.892108	-0.118987	1.25691	0.804247	-0.134425	1.22383	0.662914	-0.156208	1.42298	0.143576	-0.254878	1.05701	1.4771	-0.0667762	0.995399	1.49236	-0.0965934	0.977255	1.42528	-0.0672248
154	2.36	1.12462	1.60374	-0.307322	1.23573	1.52	-0.258433	1.22257	1.60322	-0.454032	1.22412	1.06262	-0.43853	0.695255	0.265749	-0.35395	1.32766	1.35385	-0.406463	1.23567	1.30266	-0.551603	1.34409	1.28381	-0.410861	1.16374	1.30326	-0.603082	1.09894	1.28948	-0.536533	0.815171	0.0784834	-0.404593	1.06249	1.10408	-0.370018	0.945002	0.397445	-0.377792	0.885426	0.364746	-0.42331	0.854414	0.291196	-0.365853	1.1447	0.897012	-0.489534	1.16192	0.75809	-0.45092	1.04925	0.669244	-0.454128	0.844388	0.0795937	-0.31753	1.20348	1.49329	-0.55391	1.12477	1.44293	-0.562374	1.17354	1.37516	-0.587196	1.16132	1.57241	-0.128751	1.21	1.06571	-0.180537	1.20457	0.109093	-0.25207	1.16071	1.31002	-0.124641	1.00315	1.34209	-0.0649323	1.13223	1.24568	-0.110453	0.91767	1.36451	-0.0607799	0.904108	1.37548	-0.155502	1.42548	0.117005	-0.184746	1.04806	1.10606	-0.276591	1.3155	0.408	-0.222244	1.27664	0.300892	-0.181764	1.3085	0.232583	-0.245395	1.1933	0.891351	-0.119192	1.25574	0.802014	-0.135266	1.21992	0.661197	-0.155471	1.4375	0.149709	-0.258374	1.05875	1.47819	-0.0644408	0.997004	1.49292	-0.0941133	0.979111	1.42631	-0.0639133
155	2.37	1.12479	1.60359	-0.305305	1.23632	1.51987	-0.257218	1.22197	1.6035	-0.452456	1.22513	1.06192	-0.437895	0.688251	0.275543	-0.355794	1.32682	1.35216	-0.405945	1.2343	1.30285	-0.551758	1.34185	1.28196	-0.411059	1.16258	1.30477	-0.603452	1.09748	1.29103	-0.537115	0.801102	0.0825559	-0.405221	1.06284	1.10402	-0.369538	0.942211	0.398361	-0.377534	0.881739	0.367633	-0.42323	0.847874	0.295247	-0.366217	1.14571	0.897092	-0.489099	1.16346	0.757988	-0.449586	1.05161	0.668546	-0.453776	0.829877	0.0826181	-0.318387	1.20257	1.49451	-0.552712	1.12384	1.44448	-0.561022	1.17257	1.37699	-0.587369	1.1627	1.57218	-0.127081	1.21164	1.06569	-0.179942	1.21747	0.10471	-0.251841	1.16325	1.31068	-0.123615	1.00608	1.34164	-0.0622705	1.13589	1.24597	-0.108179	0.920226	1.36306	-0.0573359	0.905997	1.37382	-0.151912	1.43906	0.119832	-0.188359	1.04888	1.10552	-0.276083	1.31679	0.407561	-0.222561	1.28223	0.299167	-0.182144	1.31661	0.232247	-0.246035	1.19467	0.890059	-0.119529	1.25492	0.79934	-0.135726	1.2169	0.658762	-0.154554	1.44855	0.154408	-0.261403	1.0607	1.47793	-0.0620708	0.998774	1.49193	-0.0914887	0.981256	1.4257	-0.0604962
156	2.38	1.12513	1.60253	-0.303237	1.23705	1.51883	-0.255974	1.22153	1.60236	-0.450952	1.22597	1.06044	-0.437297	0.681718	0.284951	-0.357594	1.32582	1.3484	-0.40578	1.23206	1.30139	-0.55197	1.33928	1.27806	-0.411779	1.16036	1.30487	-0.603597	1.09512	1.29128	-0.537201	0.78756	0.0872982	-0.406354	1.0628	1.10294	-0.368803	0.94038	0.398151	-0.377325	0.878921	0.369732	-0.423363	0.84203	0.298743	-0.366837	1.14661	0.896145	-0.488482	1.1656	0.756882	-0.448414	1.0551	0.666288	-0.453269	0.81596	0.0864202	-0.319852	1.20092	1.49424	-0.55133	1.12215	1.44456	-0.559438	1.17063	1.37736	-0.587491	1.16429	1.57074	-0.125264	1.21312	1.0649	-0.179384	1.22669	0.100778	-0.251805	1.16623	1.30959	-0.122347	1.00935	1.33943	-0.0594344	1.13995	1.2446	-0.10579	0.923217	1.3599	-0.0537767	0.908277	1.37045	-0.148138	1.44876	0.12118	-0.191503	1.04934	1.10399	-0.275293	1.31774	0.406429	-0.222637	1.28607	0.297183	-0.182522	1.32237	0.231344	-0.246471	1.1964	0.888159	-0.119902	1.25444	0.796141	-0.135913	1.21478	0.655749	-0.153524	1.45615	0.157258	-0.264012	1.06289	1.4762	-0.0596472	1.00071	1.48937	-0.0886275	0.983678	1.42344	-0.0570277
157	2.39	1.12557	1.60055	-0.301147	1.23788	1.51686	-0.254712	1.22121	1.59989	-0.449593	1.22659	1.05801	-0.436805	0.676021	0.294092	-0.359072	1.32457	1.34263	-0.405993	1.22901	1.29835	-0.552279	1.33641	1.27224	-0.41271	1.15713	1.3036	-0.603497	1.09201	1.29031	-0.536766	0.774884	0.0928905	-0.40836	1.06233	1.10078	-0.367716	0.939509	0.397082	-0.377387	0.876977	0.37138	-0.423915	0.83714	0.301835	-0.36784	1.14744	0.89418	-0.487752	1.16807	0.75488	-0.447489	1.05935	0.662774	-0.452613	0.803379	0.0909252	-0.322182	1.19869	1.4926	-0.549891	1.11985	1.44329	-0.557744	1.16779	1.37628	-0.587473	1.16605	1.56812	-0.123336	1.21438	1.06316	-0.178928	1.23221	0.0970092	-0.251945	1.16962	1.30679	-0.120957	1.01298	1.33549	-0.0564143	1.14436	1.24161	-0.103396	0.926666	1.3551	-0.0500559	0.910923	1.36541	-0.144172	1.4546	0.121226	-0.193999	1.04943	1.10151	-0.274206	1.31835	0.404412	-0.22286	1.28843	0.294586	-0.18296	1.32577	0.229515	-0.247011	1.1982	0.885555	-0.120209	1.25442	0.792437	-0.135921	1.21372	0.652311	-0.152585	1.46044	0.158075	-0.266298	1.06536	1.47297	-0.0571084	1.00281	1.48529	-0.0854595	0.986416	1.41954	-0.0535061
